<?xml version="1.0" encoding="UTF-8"?><svg id="Layer_1" xmlns="http://www.w3.org/2000/svg" viewBox="0 0 1000 1000"><defs><style>.cls-1{fill:#f05e5e;}.cls-2{fill:#fff;}.cls-3{fill:#f38787;}.cls-4{fill:#a5b1cb;}</style></defs><polygon points="779.61 527.58 779.61 527.58 779.61 527.58 779.61 527.58 779.61 527.58 822.54 527.34 822.3 484.42 822.06 441.49 821.82 398.57 821.58 355.64 821.58 355.64 821.58 355.64 778.66 355.88 778.42 312.95 778.42 312.95 778.42 312.95 735.49 313.19 735.25 270.27 692.33 270.51 649.4 270.75 606.48 270.98 563.55 271.22 520.63 271.46 477.7 271.7 460.57 271.79 434.78 271.94 391.85 272.18 348.93 272.41 306 272.65 263.08 272.89 220.15 273.13 220.15 273.13 220.15 273.13 220.39 316.06 177.46 316.29 177.46 316.29 177.46 316.29 177.54 330.72 177.7 359.22 177.94 402.15 178.18 445.07 178.42 488 178.66 530.92 178.9 573.85 179.13 616.77 179.37 659.7 179.37 659.7 179.37 659.7 222.3 659.46 222.54 702.38 222.54 702.38 222.54 702.38 265.46 702.15 308.39 701.91 351.31 701.67 394.24 701.43 437.01 701.19 437.16 701.19 480.09 700.95 480.56 700.95 523.01 700.71 565.94 700.48 608.86 700.24 608.86 700.24 608.86 700.24 608.63 657.31 651.55 657.07 651.31 614.15 651.31 614.15 651.31 614.15 651.31 614.15 651.31 614.15 694.24 613.91 737.16 613.67 736.92 570.74 736.92 570.74 736.92 570.74 736.92 570.74 736.92 570.74 779.85 570.51 779.61 527.58"/><rect class="cls-3" x="263.91" y="401.55" width="42.93" height="42.93" transform="translate(-2.35 1.59) rotate(-.32)"/><rect class="cls-3" x="306.6" y="358.38" width="42.93" height="42.93" transform="translate(-2.11 1.83) rotate(-.32)"/><rect class="cls-3" x="435.37" y="357.67" width="42.93" height="42.93" transform="translate(-2.1 2.55) rotate(-.32)"/><polygon class="cls-1" points="521.82 486.09 564.75 485.85 564.51 442.92 564.27 400 521.34 400.24 521.1 357.31 478.18 357.55 478.42 400.48 435.49 400.71 392.57 400.95 392.33 358.03 349.4 358.27 349.64 401.19 306.72 401.43 306.96 444.35 264.03 444.59 264.27 487.52 307.19 487.28 307.43 530.21 350.36 529.97 350.6 572.89 393.52 572.65 393.76 615.58 436.69 615.34 436.45 572.41 479.37 572.18 479.13 529.25 522.06 529.01 521.82 486.09"/><g><rect class="cls-4" x="220.51" y="315.94" width="42.93" height="42.93" transform="translate(-1.87 1.35) rotate(-.32)"/><rect class="cls-4" x="222.18" y="616.41" width="42.93" height="42.93" transform="translate(-3.54 1.36) rotate(-.32)"/><polygon class="cls-4" points="306 272.65 263.08 272.89 263.31 315.82 306.24 315.58 349.17 315.34 348.93 272.42 306 272.65"/><rect class="cls-4" x="565.58" y="614.5" width="42.93" height="42.93" transform="translate(-3.53 3.27) rotate(-.32)"/><rect class="cls-4" x="608.27" y="571.34" width="42.93" height="42.93" transform="translate(-3.29 3.51) rotate(-.32)"/><rect class="cls-4" x="692.69" y="313.31" width="42.93" height="42.93" transform="translate(-1.85 3.97) rotate(-.32)"/><rect class="cls-4" x="693.88" y="527.94" width="42.93" height="42.93" transform="translate(-3.04 3.99) rotate(-.32)"/><rect class="cls-4" x="735.85" y="356" width="42.93" height="42.93" transform="translate(-2.09 4.21) rotate(-.32)"/></g><g><path class="cls-2" d="M650.6,485.37l-.24-42.93-.24-42.93-.24-42.93,42.93-.24-.24-42.93-42.93,.24-42.93,.24-42.93,.24-42.93,.24-42.93,.24-42.93,.24-42.93,.24-42.93,.24-42.93,.24-42.93,.24,.24,42.93-42.93,.24,.24,42.93,.24,42.93,.24,42.93,.24,42.93,.24,42.93,.24,42.93,42.93-.24,.24,42.93,42.93-.24,42.93-.24,42.93-.24,42.93-.24,42.93-.24,42.93-.24,42.93-.24-.24-42.93,42.93-.24-.24-42.93,42.93-.24,42.93-.24-.24-42.93-42.93,.24-.24-42.93Zm-256.84,130.21l-.24-42.93-42.93,.24-.24-42.93-42.93,.24-.24-42.93-42.93,.24-.24-42.93-.24-42.93,42.93-.24-.24-42.93,42.93-.24,42.93-.24,.24,42.93,42.93-.24-.24-42.93,42.93-.24,42.93-.24,.24,42.93,42.93-.24,.24,42.93,.24,42.93-42.93,.24,.24,42.93-42.93,.24,.24,42.93-42.93,.24,.24,42.93-42.93,.24Z"/><rect class="cls-2" x="692.92" y="356.24" width="42.93" height="42.93" transform="translate(-2.09 3.98) rotate(-.32)"/><polygon class="cls-2" points="779.61 527.58 779.37 484.66 779.13 441.73 778.89 398.81 735.97 399.04 736.21 441.97 736.45 484.89 693.52 485.13 693.76 528.06 736.69 527.82 779.61 527.58"/></g></svg>