<?xml version="1.0" encoding="UTF-8"?><svg id="Layer_1" xmlns="http://www.w3.org/2000/svg" xmlns:xlink="http://www.w3.org/1999/xlink" viewBox="0 0 540 84.5"><defs><style>.cls-1{fill:url(#linear-gradient);}.cls-2{fill:#fff;}.cls-3{fill:#ff5e5b;}.cls-4{fill:url(#linear-gradient-2);}</style><linearGradient id="linear-gradient" x1="0" y1="42.25" x2="540" y2="42.25" gradientTransform="matrix(1, 0, 0, 1, 0, 0)" gradientUnits="userSpaceOnUse"><stop offset="0" stop-color="#58595b"/><stop offset=".07" stop-color="#4d4d4f"/><stop offset=".24" stop-color="#3a393a"/><stop offset=".44" stop-color="#2d2a2b"/><stop offset=".66" stop-color="#252122"/><stop offset="1" stop-color="#231f20"/></linearGradient><linearGradient id="linear-gradient-2" x1="34.09" y1="997.68" x2="44.47" y2="965.82" gradientTransform="translate(4.19 1008.22) scale(1 -1)" gradientUnits="userSpaceOnUse"><stop offset="0" stop-color="#ff4ea3"/><stop offset="1" stop-color="#ff5e5b"/></linearGradient></defs><rect class="cls-1" y="0" width="540" height="84.5" rx="13.09" ry="13.09"/><g id="Layer_1-2"><g id="Layer_1-3"><g><path class="cls-2" d="M79.95,45.15c-2.89,.32-5.3,.15-5.3,.15V27.18h3.69c2.41,0,4.66,.96,6.25,2.89,1.12,1.29,1.93,3.05,1.93,5.62,0,5.93-3.05,8.33-6.57,9.45Zm15.56-12.67c-1.12-5.62-4.01-9.14-7.22-11.23-3.2-2.25-7.06-3.37-10.91-3.37H22.19c-1.93,0-2.73,1.93-2.73,2.89v.64s-.16,24.39,.15,37.54c.48,7.7,8.18,7.7,8.18,7.7,0,0,25.18,0,37.38-.15,.64,0,1.12,0,1.76-.15,6.89-1.76,7.54-8.18,7.54-11.72,13.81,.62,23.6-9.17,21.04-22.16Z"/><g><path d="M97.51,32.1h0v-.03c-1.37-6.87-5.14-10.59-8.07-12.5-3.43-2.4-7.7-3.72-12.05-3.72H22.19c-3.1,0-4.76,2.86-4.76,4.92v.63c0,.24-.15,24.56,.15,37.6,0,.03,0,.05,0,.08,.31,4.96,3.11,7.33,5.41,8.44,2.38,1.15,4.7,1.17,4.8,1.17h0c1.03,0,25.42,0,37.38-.15,.69,0,1.35,0,2.22-.21h.03c3.64-.94,6.23-3.07,7.7-6.33,.7-1.54,1.12-3.28,1.28-5.31,3.34-.08,6.47-.74,9.33-1.96,3.01-1.28,5.56-3.12,7.58-5.47,3.96-4.6,5.44-10.7,4.17-17.16ZM21.65,58.87c-.3-12.82-.16-36.45-.15-37.46v-.63c0-.06,.15-.87,.7-.87h55.2c3.53,0,6.99,1.07,9.74,3,.02,.01,.04,.03,.06,.04,3.32,2.16,5.45,5.5,6.33,9.92,1.03,5.22-.13,10.1-3.26,13.74-3.53,4.1-9.25,6.29-15.69,6-.55-.03-1.1,.18-1.5,.56-.4,.38-.63,.92-.63,1.47,0,5.52-1.96,8.71-5.99,9.74-.4,.1-.69,.1-1.26,.1h-.04c-10.61,.13-31.1,.15-37.13,.15h-.22s-1.52-.03-3.03-.76c-1.92-.93-2.97-2.61-3.12-5Z"/><path d="M74.51,47.33c.07,0,.73,.05,1.76,.05,1.33,0,2.65-.07,3.9-.21,.13-.01,.26-.04,.39-.08,5.3-1.68,7.99-5.52,7.99-11.39,0-2.76-.81-5.09-2.41-6.93-1.94-2.33-4.71-3.62-7.8-3.62h-3.69c-1.12,0-2.03,.91-2.03,2.03v18.12c0,1.06,.83,1.95,1.89,2.03Zm2.17-4.02v-14.1h1.66c1.87,0,3.54,.77,4.69,2.16l.03,.04c.96,1.11,1.43,2.51,1.43,4.29,0,4.06-1.49,6.29-4.97,7.46-.91,.09-1.86,.15-2.84,.16Z"/></g></g><path class="cls-3" d="M46.57,56.38c.64,.32,.96,0,.96,0,0,0,8.82-8.02,12.84-12.67,3.52-4.17,3.69-11.07-2.25-13.63-6.1-2.57-11.07,3.05-11.07,3.05-4.33-4.81-10.91-4.49-13.96-1.29s-1.93,8.67,.32,11.87c2.08,2.89,11.39,11.23,12.84,12.52,0-.17,.17,0,.32,.15Z"/><path class="cls-4" d="M46.87,56.61c.36,.07,.67-.24,.67-.24,0,0,8.82-8.02,12.84-12.67,3.52-4.17,3.69-11.07-2.25-13.63-6.1-2.57-11.07,3.05-11.07,3.05-4.33-4.81-10.91-4.49-13.96-1.29s-1.93,8.67,.32,11.87c1.96,2.73,11.81,11.59,13.04,12.69,.12,.11,.26,.19,.42,.21Z"/></g></g><g><path class="cls-2" d="M132.83,53.94c-1.88-.56-3.4-1.32-4.58-2.28-.63-.47-.94-1.12-.94-1.97,0-.58,.17-1.08,.51-1.5,.34-.42,.75-.64,1.21-.64,.49,0,1.05,.19,1.68,.58,1.18,.85,2.41,1.47,3.7,1.85,1.29,.38,2.71,.58,4.27,.58,2,0,3.53-.35,4.6-1.05,1.07-.7,1.6-1.72,1.6-3.06,0-1.04-.5-1.84-1.5-2.4-1-.56-2.66-1.1-4.99-1.62-2.41-.52-4.37-1.12-5.87-1.81-1.51-.68-2.64-1.56-3.41-2.63-.77-1.07-1.15-2.42-1.15-4.07s.48-3.22,1.44-4.56c.96-1.34,2.29-2.39,4.01-3.14,1.71-.75,3.64-1.13,5.77-1.13,3.92,0,7.11,1.04,9.57,3.12,.36,.3,.61,.6,.76,.88,.15,.29,.23,.65,.23,1.09,0,.58-.17,1.08-.51,1.5-.34,.42-.75,.64-1.21,.64-.27,0-.53-.04-.76-.12-.23-.08-.54-.23-.92-.45-1.12-.82-2.21-1.43-3.27-1.83-1.05-.4-2.35-.6-3.88-.6-1.86,0-3.33,.38-4.42,1.13-1.08,.75-1.62,1.8-1.62,3.14,0,1.12,.48,1.99,1.44,2.59,.96,.6,2.59,1.16,4.89,1.68,2.44,.55,4.42,1.16,5.94,1.83,1.52,.67,2.68,1.53,3.49,2.57,.81,1.04,1.21,2.34,1.21,3.9,0,1.7-.47,3.2-1.42,4.5-.94,1.3-2.27,2.31-3.98,3.04-1.71,.73-3.68,1.09-5.9,1.09s-4.1-.28-5.98-.84Z"/><path class="cls-2" d="M172.28,34.57c.47,.44,.7,1.03,.7,1.77v15.94c0,.71-.24,1.29-.72,1.73-.48,.44-1.1,.66-1.87,.66s-1.33-.21-1.77-.62c-.44-.41-.66-.97-.66-1.68v-1.03c-.63,1.1-1.48,1.94-2.55,2.53-1.07,.59-2.27,.88-3.62,.88-4.93,0-7.39-2.77-7.39-8.3v-10.1c0-.74,.23-1.33,.7-1.77,.47-.44,1.08-.66,1.85-.66s1.42,.22,1.89,.66c.47,.44,.7,1.03,.7,1.77v10.15c0,1.42,.29,2.48,.86,3.16,.58,.68,1.48,1.03,2.71,1.03,1.42,0,2.57-.47,3.43-1.42,.86-.95,1.29-2.2,1.29-3.76v-9.16c0-.74,.23-1.33,.7-1.77,.47-.44,1.08-.66,1.85-.66s1.42,.22,1.89,.66Z"/><path class="cls-2" d="M194.49,35.15c1.36,.88,2.41,2.12,3.16,3.72,.75,1.6,1.13,3.44,1.13,5.52s-.38,3.9-1.13,5.46c-.75,1.56-1.8,2.77-3.14,3.62-1.34,.85-2.89,1.27-4.64,1.27-1.42,0-2.7-.3-3.82-.9-1.12-.6-1.99-1.44-2.59-2.51v8.38c0,.71-.23,1.27-.7,1.68-.47,.41-1.08,.62-1.85,.62s-1.39-.22-1.87-.66c-.48-.44-.72-1.01-.72-1.72v-23.29c0-.74,.23-1.33,.68-1.77,.45-.44,1.06-.66,1.83-.66s1.38,.22,1.85,.66c.47,.44,.7,1.03,.7,1.77v1.03c.6-1.12,1.47-1.99,2.61-2.61,1.14-.62,2.43-.92,3.88-.92,1.73,0,3.27,.44,4.62,1.31Zm-2.2,13.95c.9-1.11,1.36-2.68,1.36-4.7s-.45-3.7-1.36-4.85c-.9-1.15-2.16-1.73-3.78-1.73s-2.91,.56-3.8,1.68c-.89,1.12-1.33,2.73-1.33,4.81s.44,3.64,1.33,4.77c.89,1.12,2.16,1.68,3.8,1.68s2.88-.55,3.78-1.66Z"/><path class="cls-2" d="M219.18,35.15c1.36,.88,2.41,2.12,3.16,3.72,.75,1.6,1.13,3.44,1.13,5.52s-.38,3.9-1.13,5.46c-.75,1.56-1.8,2.77-3.14,3.62-1.34,.85-2.89,1.27-4.64,1.27-1.42,0-2.7-.3-3.82-.9-1.12-.6-1.99-1.44-2.59-2.51v8.38c0,.71-.23,1.27-.7,1.68-.47,.41-1.08,.62-1.85,.62s-1.39-.22-1.87-.66c-.48-.44-.72-1.01-.72-1.72v-23.29c0-.74,.23-1.33,.68-1.77,.45-.44,1.06-.66,1.83-.66s1.38,.22,1.85,.66c.47,.44,.7,1.03,.7,1.77v1.03c.6-1.12,1.47-1.99,2.61-2.61,1.14-.62,2.43-.92,3.88-.92,1.73,0,3.27,.44,4.62,1.31Zm-2.2,13.95c.9-1.11,1.36-2.68,1.36-4.7s-.45-3.7-1.36-4.85c-.9-1.15-2.16-1.73-3.78-1.73s-2.91,.56-3.8,1.68c-.89,1.12-1.33,2.73-1.33,4.81s.44,3.64,1.33,4.77c.89,1.12,2.16,1.68,3.8,1.68s2.88-.55,3.78-1.66Z"/><path class="cls-2" d="M231.46,53.47c-1.55-.85-2.75-2.07-3.59-3.66-.85-1.59-1.27-3.44-1.27-5.55s.42-3.95,1.27-5.52c.85-1.57,2.05-2.79,3.59-3.64,1.55-.85,3.35-1.27,5.4-1.27s3.85,.42,5.4,1.27c1.55,.85,2.74,2.06,3.57,3.64,.83,1.58,1.25,3.42,1.25,5.52s-.42,3.96-1.25,5.55c-.84,1.59-2.03,2.81-3.57,3.66s-3.35,1.27-5.4,1.27-3.85-.42-5.4-1.27Zm9.18-4.35c.88-1.1,1.31-2.71,1.31-4.85s-.44-3.72-1.31-4.83c-.88-1.11-2.14-1.66-3.78-1.66s-2.91,.55-3.8,1.66c-.89,1.11-1.33,2.72-1.33,4.83s.44,3.75,1.31,4.85c.88,1.1,2.14,1.64,3.78,1.64s2.94-.55,3.82-1.64Z"/><path class="cls-2" d="M264.22,34.37c.41,.36,.62,.89,.62,1.6s-.18,1.29-.53,1.64c-.36,.36-1,.59-1.93,.7l-1.23,.12c-1.62,.16-2.8,.71-3.55,1.64-.75,.93-1.13,2.1-1.13,3.49v8.63c0,.79-.25,1.4-.74,1.83-.49,.42-1.11,.64-1.85,.64s-1.35-.21-1.83-.64c-.48-.42-.72-1.03-.72-1.83v-15.9c0-.77,.24-1.36,.72-1.77,.48-.41,1.07-.62,1.79-.62s1.29,.2,1.73,.6c.44,.4,.66,.97,.66,1.7v1.64c.52-1.21,1.29-2.14,2.32-2.79,1.03-.66,2.17-1.03,3.43-1.11l.58-.04c.71-.05,1.27,.1,1.68,.45Z"/><path class="cls-2" d="M281.39,52.69c0,.66-.27,1.16-.8,1.5s-1.29,.49-2.28,.43l-1.11-.08c-4.6-.33-6.9-2.79-6.9-7.39v-8.96h-2.05c-.74,0-1.31-.16-1.7-.49s-.6-.81-.6-1.44,.2-1.11,.6-1.44,.97-.49,1.7-.49h2.05v-3.78c0-.74,.23-1.33,.7-1.77,.47-.44,1.1-.66,1.89-.66s1.38,.22,1.85,.66c.47,.44,.7,1.03,.7,1.77v3.78h3.49c.74,0,1.31,.16,1.7,.49s.6,.81,.6,1.44-.2,1.11-.6,1.44-.97,.49-1.7,.49h-3.49v9.32c0,2.03,.93,3.11,2.79,3.25l1.11,.08c1.37,.08,2.05,.7,2.05,1.85Z"/><path class="cls-2" d="M324.1,35.79c1.16,1.3,1.75,3.4,1.75,6.31v10.11c0,.79-.24,1.4-.72,1.83-.48,.42-1.1,.64-1.87,.64s-1.35-.21-1.83-.64c-.48-.42-.72-1.03-.72-1.83v-10.11c0-1.51-.27-2.58-.8-3.22-.53-.64-1.35-.97-2.44-.97-1.34,0-2.41,.46-3.2,1.38-.79,.92-1.19,2.17-1.19,3.76v9.16c0,.79-.24,1.4-.72,1.83-.48,.42-1.09,.64-1.83,.64s-1.36-.21-1.85-.64c-.49-.42-.74-1.03-.74-1.83v-10.11c0-1.51-.27-2.58-.8-3.22-.53-.64-1.35-.97-2.44-.97-1.34,0-2.4,.46-3.18,1.38-.78,.92-1.17,2.17-1.17,3.76v9.16c0,.79-.25,1.4-.74,1.83-.49,.42-1.11,.64-1.85,.64s-1.35-.21-1.83-.64c-.48-.42-.72-1.03-.72-1.83v-15.9c0-.77,.25-1.36,.74-1.77s1.11-.62,1.85-.62,1.29,.2,1.75,.6c.45,.4,.68,.97,.68,1.7v.99c.63-1.1,1.47-1.93,2.53-2.51,1.05-.58,2.27-.86,3.64-.86,3.01,0,5.02,1.26,6.04,3.78,.6-1.15,1.49-2.07,2.67-2.75,1.18-.68,2.51-1.03,3.98-1.03,2.19,0,3.87,.65,5.03,1.95Z"/><path class="cls-2" d="M348.09,49.45c.29,.36,.43,.84,.43,1.44,0,.85-.51,1.56-1.52,2.14-.93,.52-1.99,.94-3.16,1.25-1.18,.31-2.3,.47-3.37,.47-3.23,0-5.79-.93-7.68-2.79-1.89-1.86-2.83-4.41-2.83-7.64,0-2.05,.41-3.88,1.23-5.46,.82-1.59,1.98-2.82,3.47-3.7,1.49-.88,3.18-1.31,5.07-1.31s3.38,.4,4.72,1.19c1.34,.79,2.38,1.92,3.12,3.37,.74,1.45,1.11,3.16,1.11,5.14,0,1.18-.52,1.77-1.56,1.77h-12.12c.16,1.89,.7,3.28,1.6,4.17,.9,.89,2.22,1.33,3.94,1.33,.88,0,1.65-.11,2.32-.33,.67-.22,1.43-.52,2.28-.9,.82-.44,1.42-.66,1.81-.66,.47,0,.84,.18,1.13,.53Zm-11.58-10.68c-.84,.88-1.33,2.14-1.5,3.78h9.28c-.06-1.67-.47-2.94-1.23-3.8-.77-.86-1.83-1.29-3.2-1.29s-2.51,.44-3.35,1.31Z"/><path class="cls-2" d="M367.76,53.47c-1.55-.85-2.75-2.07-3.59-3.66-.85-1.59-1.27-3.44-1.27-5.55s.42-3.95,1.27-5.52c.85-1.57,2.05-2.79,3.59-3.64,1.55-.85,3.35-1.27,5.4-1.27s3.85,.42,5.4,1.27c1.55,.85,2.74,2.06,3.57,3.64,.83,1.58,1.25,3.42,1.25,5.52s-.42,3.96-1.25,5.55c-.84,1.59-2.03,2.81-3.57,3.66s-3.35,1.27-5.4,1.27-3.85-.42-5.4-1.27Zm9.18-4.35c.88-1.1,1.31-2.71,1.31-4.85s-.44-3.72-1.31-4.83c-.88-1.11-2.14-1.66-3.78-1.66s-2.91,.55-3.8,1.66c-.89,1.11-1.33,2.72-1.33,4.83s.44,3.75,1.31,4.85c.88,1.1,2.14,1.64,3.78,1.64s2.94-.55,3.82-1.64Z"/><path class="cls-2" d="M404.67,35.89c1.18,1.37,1.77,3.44,1.77,6.2v10.11c0,.77-.23,1.37-.68,1.81-.45,.44-1.08,.66-1.87,.66s-1.42-.22-1.89-.66c-.47-.44-.7-1.04-.7-1.81v-9.82c0-1.56-.29-2.7-.88-3.41-.59-.71-1.51-1.07-2.77-1.07-1.48,0-2.66,.47-3.55,1.4-.89,.93-1.33,2.18-1.33,3.74v9.16c0,.77-.23,1.37-.7,1.81-.47,.44-1.1,.66-1.89,.66s-1.42-.22-1.87-.66c-.45-.44-.68-1.04-.68-1.81v-15.9c0-.71,.23-1.29,.7-1.73,.47-.44,1.09-.66,1.89-.66,.71,0,1.29,.21,1.75,.64,.45,.42,.68,.98,.68,1.66v1.11c.68-1.12,1.6-1.99,2.75-2.59,1.15-.6,2.45-.9,3.9-.9,2.41,0,4.2,.68,5.38,2.05Z"/><path class="cls-2" d="M446.54,52.2c0,.63-.24,1.18-.72,1.66-.48,.48-1.05,.72-1.7,.72s-1.32-.29-1.89-.86l-13.68-12.82v11.09c0,.79-.24,1.44-.72,1.93-.48,.49-1.13,.74-1.95,.74s-1.43-.25-1.91-.74c-.48-.49-.72-1.14-.72-1.93V27.88c0-.79,.24-1.43,.72-1.91,.48-.48,1.12-.72,1.91-.72s1.47,.24,1.95,.72c.48,.48,.72,1.12,.72,1.91v10.56l13.23-12.41c.49-.49,1.05-.74,1.68-.74s1.18,.24,1.66,.72c.48,.48,.72,1.03,.72,1.66s-.27,1.21-.82,1.73l-11.05,10.11,11.75,10.93c.55,.52,.82,1.11,.82,1.77Z"/><path class="cls-2" d="M453.46,53.47c-1.55-.85-2.75-2.07-3.59-3.66-.85-1.59-1.27-3.44-1.27-5.55s.42-3.95,1.27-5.52c.85-1.57,2.05-2.79,3.59-3.64,1.55-.85,3.35-1.27,5.4-1.27s3.85,.42,5.4,1.27c1.55,.85,2.74,2.06,3.57,3.64,.84,1.58,1.25,3.42,1.25,5.52s-.42,3.96-1.25,5.55c-.83,1.59-2.03,2.81-3.57,3.66-1.55,.85-3.35,1.27-5.4,1.27s-3.86-.42-5.4-1.27Zm9.18-4.35c.88-1.1,1.31-2.71,1.31-4.85s-.44-3.72-1.31-4.83c-.88-1.11-2.14-1.66-3.78-1.66s-2.91,.55-3.8,1.66c-.89,1.11-1.33,2.72-1.33,4.83s.44,3.75,1.31,4.85c.88,1.1,2.14,1.64,3.78,1.64s2.94-.55,3.82-1.64Z"/><path class="cls-2" d="M474.16,44.93c-.4-.36-.6-.85-.6-1.48s.2-1.13,.6-1.5c.4-.37,.99-.55,1.79-.55h8.46c.79,0,1.39,.19,1.79,.55,.4,.37,.6,.87,.6,1.5s-.2,1.12-.6,1.48c-.4,.36-.99,.53-1.79,.53h-8.46c-.79,0-1.39-.18-1.79-.53Z"/><path class="cls-2" d="M511.57,36.26v15.94c0,.79-.24,1.4-.72,1.83-.48,.42-1.09,.64-1.83,.64s-1.36-.21-1.85-.64c-.49-.42-.74-1.03-.74-1.83v-14.01h-8.13v14.01c0,.79-.24,1.4-.72,1.81-.48,.41-1.09,.62-1.83,.62s-1.36-.21-1.85-.62c-.49-.41-.74-1.01-.74-1.81v-14.01h-2.05c-1.53,0-2.3-.64-2.3-1.93s.77-1.93,2.3-1.93h2.05v-.21c0-2.55,.68-4.57,2.03-6.06,1.36-1.49,3.27-2.35,5.73-2.57l.95-.08c.14-.03,.34-.04,.62-.04,1.45,0,2.18,.62,2.18,1.85,0,.6-.16,1.07-.49,1.4-.33,.33-.78,.52-1.36,.58l-.9,.08c-1.26,.11-2.18,.5-2.75,1.17-.58,.67-.86,1.65-.86,2.94v.94h10.97c1.53,0,2.3,.64,2.3,1.93Zm-4.77-6.76c-.55-.51-.82-1.17-.82-1.99s.27-1.48,.82-1.97,1.29-.74,2.22-.74,1.64,.25,2.2,.74c.56,.49,.84,1.15,.84,1.97s-.28,1.49-.84,1.99c-.56,.51-1.29,.76-2.2,.76s-1.67-.25-2.22-.76Z"/></g></svg>